<svg width="54" height="54" viewBox="0 0 54 54" fill="none" xmlns="http://www.w3.org/2000/svg">
<path d="M22 31C23.1038 31 23.9991 30.1047 23.9991 29H20.001C20.001 30.1047 20.8963 31 22 31ZM28.731 26.3216C28.1272 25.6728 26.9975 24.6969 26.9975 21.5C26.9975 19.0719 25.295 17.1281 22.9994 16.6513V16C22.9994 15.4478 22.5519 15 22 15C21.4481 15 21.0006 15.4478 21.0006 16V16.6513C18.705 17.1281 17.0025 19.0719 17.0025 21.5C17.0025 24.6969 15.8728 25.6728 15.2691 26.3216C15.0816 26.5231 14.9985 26.7641 15 27C15.0035 27.5125 15.4056 28 16.0031 28H27.9969C28.5944 28 28.9969 27.5125 29 27C29.0016 26.7641 28.9185 26.5228 28.731 26.3216Z" fill="#C5C7CD"/>
<g filter="url(#filter0_d)">
<circle cx="27" cy="17" r="3" fill="url(#paint0_linear)"/>
</g>
<defs>
<filter id="filter0_d" x="0" y="0" width="54" height="54" filterUnits="userSpaceOnUse" color-interpolation-filters="sRGB">
<feFlood flood-opacity="0" result="BackgroundImageFix"/>
<feColorMatrix in="SourceAlpha" type="matrix" values="0 0 0 0 0 0 0 0 0 0 0 0 0 0 0 0 0 0 127 0"/>
<feOffset dy="10"/>
<feGaussianBlur stdDeviation="12"/>
<feColorMatrix type="matrix" values="0 0 0 0 0.392157 0 0 0 0 0.423529 0 0 0 0 0.470588 0 0 0 0.09 0"/>
<feBlend mode="normal" in2="BackgroundImageFix" result="effect1_dropShadow"/>
<feBlend mode="normal" in="SourceGraphic" in2="effect1_dropShadow" result="shape"/>
</filter>
<linearGradient id="paint0_linear" x1="25.1268" y1="13.5857" x2="28.9636" y2="20.5506" gradientUnits="userSpaceOnUse">
<stop stop-color="#F80284"/>
<stop offset="1" stop-color="#8325C5"/>
</linearGradient>
</defs>
</svg>
