<svg width="40" height="40" viewBox="0 0 40 40" fill="none" xmlns="http://www.w3.org/2000/svg">
<path d="M36.25 40H3.75V10.7324L14.4824 0H36.25V40Z" fill="white"/>
<path d="M17.5 35H16.25C14.1824 35 12.5 33.3176 12.5 31.25V28.0176L9.48242 25L12.5 21.9824V18.75C12.5 16.6824 14.1824 15 16.25 15H17.5V17.5H16.25C15.5612 17.5 15 18.0612 15 18.75V23.0176L13.0176 25L15 26.9824V31.25C15 31.9388 15.5612 32.5 16.25 32.5H17.5V35Z" fill="#AA1AB0"/>
<path d="M23.75 35H22.5V32.5H23.75C24.4388 32.5 25 31.9388 25 31.25V26.9824L26.9824 25L25 23.0176V18.75C25 18.0612 24.4388 17.5 23.75 17.5H22.5V15H23.75C25.8176 15 27.5 16.6824 27.5 18.75V21.9824L30.5176 25L27.5 28.0176V31.25C27.5 33.3176 25.8176 35 23.75 35Z" fill="#AA1AB0"/>
<path d="M14.4824 10.7324V0L3.75 10.7324H14.4824Z" fill="#E2E2E2"/>
</svg>
