<svg width="22" height="22" viewBox="0 0 22 22" fill="none" xmlns="http://www.w3.org/2000/svg">
<circle cx="11" cy="11" r="11" fill="#8792A6" fill-opacity="0.25"/>
<path d="M14.2812 7.25H12.5625V6.9375C12.5625 6.42057 12.1419 6 11.625 6H10.375C9.85807 6 9.4375 6.42057 9.4375 6.9375V7.25H7.71875C7.28797 7.25 6.9375 7.60047 6.9375 8.03125V9.125C6.9375 9.29758 7.07742 9.4375 7.25 9.4375H7.42078L7.69076 15.1071C7.71461 15.6078 8.12594 16 8.62719 16H13.3728C13.8741 16 14.2854 15.6078 14.3092 15.1071L14.5792 9.4375H14.75C14.9226 9.4375 15.0625 9.29758 15.0625 9.125V8.03125C15.0625 7.60047 14.712 7.25 14.2812 7.25ZM10.0625 6.9375C10.0625 6.7652 10.2027 6.625 10.375 6.625H11.625C11.7973 6.625 11.9375 6.7652 11.9375 6.9375V7.25H10.0625V6.9375ZM7.5625 8.03125C7.5625 7.9451 7.6326 7.875 7.71875 7.875H14.2812C14.3674 7.875 14.4375 7.9451 14.4375 8.03125V8.8125C14.3412 8.8125 7.96158 8.8125 7.5625 8.8125V8.03125ZM13.6849 15.0774C13.677 15.2443 13.5399 15.375 13.3728 15.375H8.62719C8.4601 15.375 8.32299 15.2443 8.31506 15.0774L8.04648 9.4375H13.9535L13.6849 15.0774Z" fill="#8792A6"/>
<path d="M11 14.75C11.1726 14.75 11.3125 14.6101 11.3125 14.4375V10.375C11.3125 10.2024 11.1726 10.0625 11 10.0625C10.8274 10.0625 10.6875 10.2024 10.6875 10.375V14.4375C10.6875 14.6101 10.8274 14.75 11 14.75Z" fill="#8792A6"/>
<path d="M12.5625 14.75C12.7351 14.75 12.875 14.6101 12.875 14.4375V10.375C12.875 10.2024 12.7351 10.0625 12.5625 10.0625C12.3899 10.0625 12.25 10.2024 12.25 10.375V14.4375C12.25 14.6101 12.3899 14.75 12.5625 14.75Z" fill="#8792A6"/>
<path d="M9.4375 14.75C9.61008 14.75 9.75 14.6101 9.75 14.4375V10.375C9.75 10.2024 9.61008 10.0625 9.4375 10.0625C9.26492 10.0625 9.125 10.2024 9.125 10.375V14.4375C9.125 14.6101 9.2649 14.75 9.4375 14.75Z" fill="#8792A6"/>
</svg>
