<svg width="36" height="36" viewBox="0 0 36 36" fill="none" xmlns="http://www.w3.org/2000/svg">
<circle cx="18" cy="18" r="18" fill="white" fill-opacity="0.4"/>
<path d="M25.875 21.6562V9.84375C25.875 9.37617 25.4988 9 25.0312 9H13.5C11.6367 9 10.125 10.5117 10.125 12.375V23.625C10.125 25.4883 11.6367 27 13.5 27H25.0312C25.4988 27 25.875 26.6238 25.875 26.1562V25.5937C25.875 25.3301 25.752 25.091 25.5621 24.9363C25.4145 24.3949 25.4145 22.8516 25.5621 22.3102C25.752 22.159 25.875 21.9199 25.875 21.6562ZM14.625 13.7109C14.625 13.5949 14.7199 13.5 14.8359 13.5H22.2891C22.4051 13.5 22.5 13.5949 22.5 13.7109V14.4141C22.5 14.5301 22.4051 14.625 22.2891 14.625H14.8359C14.7199 14.625 14.625 14.5301 14.625 14.4141V13.7109ZM14.625 15.9609C14.625 15.8449 14.7199 15.75 14.8359 15.75H22.2891C22.4051 15.75 22.5 15.8449 22.5 15.9609V16.6641C22.5 16.7801 22.4051 16.875 22.2891 16.875H14.8359C14.7199 16.875 14.625 16.7801 14.625 16.6641V15.9609ZM23.5336 24.75H13.5C12.8777 24.75 12.375 24.2473 12.375 23.625C12.375 23.0062 12.8812 22.5 13.5 22.5H23.5336C23.4668 23.1012 23.4668 24.1488 23.5336 24.75Z" fill="white"/>
</svg>
