<svg width="18" height="18" viewBox="0 0 18 18" fill="none" xmlns="http://www.w3.org/2000/svg">
<g clip-path="url(#clip0)">
<path d="M11.5984 0.103958C11.5159 0.0170289 11.4027 -0.0351562 11.2854 -0.0351562H4.26366C2.96796 -0.0351562 1.89844 1.03011 1.89844 2.32567V15.6039C1.89844 16.8996 2.96796 17.9649 4.26366 17.9649H13.794C15.0897 17.9649 16.1593 16.8996 16.1593 15.6039V5.06045C16.1593 4.94743 16.1071 4.8388 16.0332 4.75613L11.5984 0.103958ZM11.7245 1.49964L14.6941 4.61701H12.7637C12.1898 4.61701 11.7245 4.15614 11.7245 3.58224V1.49964ZM13.794 17.0953H4.26366C3.45067 17.0953 2.76801 16.4214 2.76801 15.6039V2.32567C2.76801 1.51268 3.44628 0.834413 4.26366 0.834413H10.8549V3.58224C10.8549 4.63871 11.7072 5.48658 12.7637 5.48658H15.2897V15.6039C15.2897 16.4214 14.6114 17.0953 13.794 17.0953Z" fill="url(#paint0_linear)"/>
<path d="M12.6069 14.0952H5.45041C5.21132 14.0952 5.01562 14.2908 5.01562 14.53C5.01562 14.7691 5.21132 14.9648 5.45041 14.9648H12.6113C12.8504 14.9648 13.0461 14.7691 13.0461 14.53C13.0461 14.2908 12.8504 14.0952 12.6069 14.0952Z" fill="url(#paint1_linear)"/>
<path d="M6.80201 9.41689L8.59333 7.49071V12.2386C8.59333 12.4777 8.78903 12.6734 9.02812 12.6734C9.26734 12.6734 9.4629 12.4777 9.4629 12.2386V7.49071L11.2542 9.41689C11.3411 9.50808 11.4543 9.55601 11.5716 9.55601C11.676 9.55601 11.7847 9.51687 11.8673 9.43859C12.0413 9.27338 12.0543 8.99941 11.8891 8.82555L9.34123 6.09077C9.25855 6.00385 9.14553 5.95166 9.02386 5.95166C8.90205 5.95166 8.78903 6.00385 8.70649 6.09077L6.15863 8.82555C5.99342 8.99941 6.00647 9.27764 6.18032 9.43859C6.36297 9.6038 6.63681 9.59075 6.80201 9.41689Z" fill="url(#paint2_linear)"/>
</g>
<defs>
<linearGradient id="paint0_linear" x1="9.02885" y1="-0.0351563" x2="9.02885" y2="17.9649" gradientUnits="userSpaceOnUse">
<stop stop-color="#F80284"/>
<stop offset="1" stop-color="#AA1AB0"/>
</linearGradient>
<linearGradient id="paint1_linear" x1="9.03086" y1="14.0952" x2="9.03086" y2="14.9648" gradientUnits="userSpaceOnUse">
<stop stop-color="#F80284"/>
<stop offset="1" stop-color="#AA1AB0"/>
</linearGradient>
<linearGradient id="paint2_linear" x1="9.02385" y1="5.95166" x2="9.02385" y2="12.6734" gradientUnits="userSpaceOnUse">
<stop stop-color="#F80284"/>
<stop offset="1" stop-color="#AA1AB0"/>
</linearGradient>
<clipPath id="clip0">
<rect width="18" height="18" fill="white"/>
</clipPath>
</defs>
</svg>
